<?xml version="1.0" encoding="UTF-8" standalone="no"?>
<!-- Uploaded to: SVG Repo, www.svgrepo.com, Generator: SVG Repo Mixer Tools -->

<svg
   width="666.66663"
   height="666.66663"
   viewBox="0 0 19.999999 19.999999"
   fill="none"
   version="1.1"
   id="svg1"
   xmlns="http://www.w3.org/2000/svg"
   xmlns:svg="http://www.w3.org/2000/svg">
  <defs
     id="defs1" />
  <path
     d="M 16,1.412796e-7 H 14 V 2.0000001 h 2 z M 2.0000001,2.0000001 h 6 v 2 h -6 V 18 H 16 v -6 h 2 v 8 H 1.412796e-7 V 2.0000001 Z m 4,7.9999999 h -2 v 6 H 10 v -2 h 2 v -2 h -2 v 2 H 6.0000001 Z M 10,8.0000001 H 8.0000001 V 10 h -2 V 8.0000001 h 2 v -2 H 10 v -2 h 2 v 2 h -2 z m 2,-6 h 2 v 2 h -2 z m 4,0 h 2 v 2 h 2 v 2 h -2 v 2 H 16 V 10 H 14 V 8.0000001 h 2 v -2 h 2 v -2 H 16 Z M 12,10 h 2 v 2 h -2 z"
     fill="#000000"
     id="path1"
     style="fill:#ffffff;fill-opacity:1" />
</svg>
